<?xml version="1.0" encoding="UTF-8" standalone="no"?>
<!-- Created with Inkscape (http://www.inkscape.org/) -->

<svg
   xmlns:dc="http://purl.org/dc/elements/1.1/"
   xmlns:cc="http://creativecommons.org/ns#"
   xmlns:rdf="http://www.w3.org/1999/02/22-rdf-syntax-ns#"
   xmlns:svg="http://www.w3.org/2000/svg"
   xmlns="http://www.w3.org/2000/svg"
   xmlns:sodipodi="http://sodipodi.sourceforge.net/DTD/sodipodi-0.dtd"
   xmlns:inkscape="http://www.inkscape.org/namespaces/inkscape"
   id="svg2"
   version="1.1"
   inkscape:version="0.48.5 r10040"
   width="650"
   height="825"
   sodipodi:docname="Fallout_Invite.png">
  <metadata
     id="metadata8">
    <rdf:RDF>
      <cc:Work
         rdf:about="">
        <dc:format>image/svg+xml</dc:format>
        <dc:type
           rdf:resource="http://purl.org/dc/dcmitype/StillImage" />
        <dc:title></dc:title>
      </cc:Work>
    </rdf:RDF>
  </metadata>
  <defs
     id="defs6" />
  <sodipodi:namedview
     pagecolor="#ffffff"
     bordercolor="#666666"
     borderopacity="1"
     objecttolerance="10"
     gridtolerance="10"
     guidetolerance="10"
     inkscape:pageopacity="0"
     inkscape:pageshadow="2"
     inkscape:window-width="1920"
     inkscape:window-height="1017"
     id="namedview4"
     showgrid="false"
     showguides="true"
     inkscape:guide-bbox="true"
     fit-margin-top="0"
     fit-margin-left="0"
     fit-margin-right="0"
     fit-margin-bottom="0"
     inkscape:zoom="0.5"
     inkscape:cx="-25.680258"
     inkscape:cy="310.49597"
     inkscape:window-x="-8"
     inkscape:window-y="-8"
     inkscape:window-maximized="1"
     inkscape:current-layer="layer7" />
  <g
     inkscape:groupmode="layer"
     id="layer7"
     inkscape:label="Vault Boy"
     transform="translate(2.8842529e-7,-20)"
     style="display:inline"
     sodipodi:insensitive="true">
    <g
       id="g4271">
      <path
         inkscape:connector-curvature="0"
         id="path4025"
         d="m 183.30147,265.71209 0.99828,10.50748 -8.98457,2.50178 -33.56738,15.8863 -30.32295,21.51531 c 0,0 -52.022355,37.16629 -107.0821688,132.69365 l 0.2655252,6.53039 7.7367196,15.63612 c 0,0 41.233935,75.6606 57.998942,86.45165 l 18.369965,-4.51836 19.466587,-13.25943 10.10765,-17.88773 2.37093,-6.87989 -10.23244,-20.38951 c 0,0 -22.461442,-31.27224 -24.832372,-31.52242 -2.37093,-0.25018 22.087082,-13.00926 22.087082,-13.00926 l 26.28139,-14.77305 5.64717,10.5257 16.50029,38.2994 8.11779,40.33378 -8.64721,46.70227 -13.05906,31.66556 -18.70622,57.31643 -10.059,66.86916 -2.82359,57.84713 1.4118,9.19892 7.76484,2.47664 -5.29421,12.20628 -2.82359,10.79105 5.82364,13.97531 9.00016,6.01467 9.17664,2.65354 15.00027,-1.41521 25.58869,-11.49866 8.47074,-14.85983 -0.70589,-14.6829 13.94143,-12.02938 c 0,0 25.5887,-102.07276 68.29535,-163.28105 l 2.6471,-3.53804 4.58832,6.63385 c 0,0 45.25029,120.65549 41.75629,148.67542 -3.494,28.01994 34.65685,23.71609 34.65685,23.71609 l 3.70595,-7.07609 34.94181,8.84512 c 0,0 45.88318,1.23832 54.88334,-4.77636 l 6.17657,-0.70762 3.00006,-2.83043 -5.09164,-5.16216 -25.4563,-10.8202 -18.28112,-3.62758 -6.92561,-1.31344 5.86493,-4.31557 -1.99657,-25.95596 -14.10079,-94.56728 -19.46659,-94.06691 -9.4892,-54.35984 c 0,0 2.82358,-55.37049 5.47069,-59.08544 2.64711,-3.71495 10.50737,-49.17041 10.50737,-49.17041 l 41.5524,-5.84628 62.47171,-24.58946 37.94186,-28.1275 12.70611,-13.9753 7.54946,-9.3322 2.74529,-9.25659 -1.93418,-9.63185 -2.55811,-15.44849 -8.85979,-9.88203 -7.23758,-12.5089 -5.49058,-3.87776 -6.988,4.50321 -19.09223,11.3831 -45.17246,12.25872 -52.03567,1.1258 -22.96059,-2.75196 -16.84608,-2.75196 -27.77026,-4.95392 -6.79541,-1.5507 -5.08502,-1.59489 -7.83031,9.03768 -30.7597,2.18906 z"
         style="fill:#424244;fill-opacity:1;stroke:#c90000;stroke-width:0.99949843px;stroke-linecap:butt;stroke-linejoin:miter;stroke-opacity:1;display:inline" />
      <path
         sodipodi:nodetypes="ccccccc"
         inkscape:connector-curvature="0"
         id="path4022"
         d="M 274.70048,425.81928 C 244.78431,375.93276 246.73564,326.04626 182.75766,276.15974 l 0.70589,-10.96797 67.58946,22.64353 52.23623,-23.17423 -5.47069,50.06342 c -10.54118,18.53181 -9.28442,74.093 -23.11807,111.09479 z"
         style="fill:#ffffff;fill-opacity:1;stroke:none;display:inline" />
      <path
         inkscape:connector-curvature="0"
         id="path4017"
         d="m 516.64602,249.62435 5.82363,-15.56743 14.29438,-15.0367 15.17674,-9.19894 16.05911,-4.95327 7.05896,0.70761 5.64715,2.83044 c 0,0 -2.82357,7.25301 -1.05884,7.42991 1.76474,0.1769 20.64744,-8.31442 20.64744,-8.31442 l 10.94137,-2.12283 8.22306,0.86483 3.74357,2.50178 c 0,0 5.42819,-0.25018 5.58417,-0.31272 0.15598,-0.0625 12.80268,-0.75416 12.80268,-0.75416 l 6.17659,4.42256 1.27943,3.31693 -1.36767,4.37833 -4.36772,3.14003 2.6471,3.71495 -0.35295,5.70511 -4.2141,8.6932 -13.72643,15.69867 -21.02641,14.13506 -66.07408,25.5807 -8.36065,-25.76834 -8.36065,-13.13434 z"
         style="fill:#f1ce9e;fill-opacity:1;stroke:none" />
      <path
         inkscape:connector-curvature="0"
         id="path4019"
         d="m 118.66242,525.14665 23.95888,20.01424 -2.49572,13.25944 -7.66294,30.14929 -4.50009,13.70995 -3.44123,7.42991 -24.17691,0.97296 -12.878435,5.09119 -5.740147,-1.56362 -9.733292,-11.63327 -1.996572,-10.75766 1.747001,-13.88487 6.364075,-6.8799 10.98115,1.1258 10.856365,-4.00284 -4.242717,-5.00356 -5.989719,-2.50178 1.123073,-7.63043 z"
         style="fill:#f1ce9e;fill-opacity:1;stroke:none" />
      <path
         inkscape:connector-curvature="0"
         id="path4001"
         d="M 307.87755,100.67241 265.1709,61.046244 235.52331,53.970142 176.93403,58.923413 131.05085,86.874015 116.58,114.11701 l 2.11768,47.40988 4.23537,27.24299 12.35317,19.81308 -3.17653,7.42991 -0.7059,9.37584 3.00005,8.49132 7.94132,9.37583 8.29427,4.06876 13.58848,0.53071 21.88274,19.98998 56.33928,22.6344 5.60302,9.03116 -0.70589,5.30707 3.61771,2.47665 6.26481,0.0885 4.41185,-0.7076 1.94121,-4.15721 0.17648,-6.1916 3.70594,-8.31441 30.52997,-13.2677 10.94137,-7.96061 6.706,-11.67557 8.64722,-15.21361 7.58836,-15.21362 5.29422,-28.83514 c 0,0 -0.35295,-31.66555 -4.76479,-37.14954 -4.41184,-5.48397 -5.11774,-14.6829 -5.11774,-14.6829 L 309.99524,113.5863 z"
         style="fill:#f1ce9e;fill-opacity:1;stroke:none;display:inline" />
      <path
         inkscape:connector-curvature="0"
         id="path4007"
         d="m 289.70075,285.35867 c 0,0 -20.38271,15.30207 -25.67692,23.52804 0,0 -2.11769,0 -3.00006,-1.94594 -0.88236,-1.94592 -8.11779,2.29974 -8.11779,2.29974 0,0 -25.14752,-15.56742 -31.50057,-16.89419 l -2.02945,-0.53071 -2.82358,8.22597 c 0,0 -2.73534,13.6215 -1.67649,19.01702 1.05884,5.39553 5.20597,17.7787 8.02955,21.93592 2.82358,4.15721 5.7354,6.28004 5.7354,6.28004 l 7.94132,-6.8992 18.00032,-18.66322 4.0589,1.59212 3.61771,0.0885 2.73534,-1.23832 c 0,0 11.82375,5.57242 29.20641,18.30941 l 3.97066,-0.97298 2.55887,-8.57977 2.02945,-14.24065 -1.05884,-12.47164 -3.35301,-10.79104 -4.14713,-6.28005 -2.3824,-1.85747 z"
         style="fill:#24399f;fill-opacity:1;stroke:none" />
      <path
         inkscape:connector-curvature="0"
         id="path4012"
         d="m 207.13555,396.93044 -20.09051,11.3831 0.12479,5.25374 38.05966,-1.75125 0.8735,-6.12936 z"
         style="fill:#24399f;fill-opacity:1;stroke:none" />
      <path
         inkscape:connector-curvature="0"
         id="path4014"
         d="m 283.17123,511.97082 -10.58843,42.63352 7.86441,2.37746 5.42818,0.25018 4.99143,-1.06326 4.11793,-2.56432 -0.99828,-11.50819 -9.23415,-29.33337 z"
         style="fill:#24399f;fill-opacity:1;stroke:#000000;stroke-width:0.99949843px;stroke-linecap:butt;stroke-linejoin:miter;stroke-opacity:1" />
      <path
         inkscape:connector-curvature="0"
         id="path4004"
         d="m 223.85685,210.79803 24.95716,2.37669 16.59651,0.37527 24.20845,-4.75339 16.84608,-7.13007 6.48886,-4.25302 4.99143,2.75195 1.12307,5.7541 -1.87178,4.87847 -4.74186,1.25089 -4.36751,3.3774 -10.10765,7.75552 -13.97601,6.37954 -14.10079,4.00284 -15.22387,0.87563 -10.98115,-3.37741 -19.84094,-7.50533 -7.98629,-3.12723 z"
         style="fill:#ffffff;fill-opacity:1;stroke:none;display:inline" />
      <path
         sodipodi:nodetypes="csccccccccccccccccccccccccccccccccccccc"
         inkscape:connector-curvature="0"
         id="path3994"
         d="m 123.46668,186.09295 c 0,0 9.6709,-38.96522 21.8999,-42.96806 12.22901,-4.00285 -9.73329,-8.0057 -9.73329,-8.0057 l -8.735,-15.76121 10.482,-15.51103 9.98287,-3.00214 16.97087,2.75196 8.48543,-1.50107 7.73672,-15.260856 12.47858,-12.759077 30.6973,8.255874 20.71445,-12.508899 c 0,0 12.97772,3.252314 32.94345,21.01495 l 9.73329,2.751957 12.97772,-4.002847 c -0.67367,-0.135062 22.79191,-15.429062 -1.753,-50.21112 l -12.52963,-5.660882 2.2721,9.464286 -4.91921,10.348799 -8.40177,0.783822 -15.22387,-6.12936 -10.98115,-7.755517 -12.10422,-5.629005 -6.86322,1.000712 -13.47687,4.378115 -11.23072,-2.877047 -14.54339,-12.164578 -7.23542,-3.538051 -8.29426,4.776369 -11.4708,12.736983 -26.64754,12.383179 -7.76484,14.329105 -4.41184,12.383178 -11.4708,12.736983 -12.52963,26.889187 -0.529426,21.58211 2.823576,19.10548 16.94149,30.60413 z"
         style="fill:#f0ed61;fill-opacity:1;stroke:none;display:inline" />
      <path
         inkscape:connector-curvature="0"
         id="path3998"
         d="m 306.90695,81.655389 c 0,0 -9.00016,9.994994 -12.08845,10.348799 -3.08829,0.353805 4.05889,9.110482 4.05889,9.110482 l 10.5002,11.32176 6.0001,-3.00734 2.91182,-7.0761 0.52942,-5.30708 -1.6765,-5.483978 -5.64716,-6.368492 z"
         style="fill:#f0ed61;fill-opacity:1;stroke:#000000;stroke-width:0.99949843px;stroke-linecap:butt;stroke-linejoin:miter;stroke-opacity:1;display:inline" />
      <path
         inkscape:connector-curvature="0"
         id="path2987"
         d="m 457.22145,794.31126 c 0,0 -18.3241,-19.47709 -52.60282,-21.85234 0,0 7.23946,-21.56653 -12.41959,-120.10061 -19.65904,-98.53407 -39.5415,-140.635 -26.80779,-200.87516 12.7337,-60.24014 11.61671,-58.67256 11.61671,-58.67256 0,0 61.65793,-3.58306 106.11419,-32.02358 44.45626,-28.44051 58.30695,-57.10497 58.30695,-62.03168 0,0 103.65682,-26.42505 106.561,-72.55692 l -3.42043,1.37725 c 0,0 -6.1857,41.3955 -103.81075,64.90932 l -5.10712,3.33965 c 0,0 2.68543,7.36328 -0.86882,12.66802 -3.55425,5.30473 -49.87364,61.92383 -156.21123,79.83912 0,0 -2.51323,1.39963 -2.23398,-3.13518 0.27925,-4.5348 7.81893,-42.49282 -1.117,-58.44863 0,0 -7.81893,-12.76464 -4.46797,58.67257 0,0 -0.72883,20.29918 -10.04885,55.76964 -9.32002,35.47046 -6.31866,57.3228 -6.31866,57.3228 0,0 11.37359,77.11658 19.74581,102.92767 0,0 18.83079,97.38216 27.89747,174.42118 0,0 10.25143,-4.59052 55.19288,18.44944 z"
         style="fill:#000000;fill-opacity:1;stroke:none;display:inline" />
      <path
         sodipodi:nodetypes="ccssc"
         inkscape:connector-curvature="0"
         id="path3803"
         d="m 550.26831,260.54628 c 0,0 18.01447,-16.83617 42.3413,-7.01845 -0.081,-0.16224 6.39475,3.68286 -6.95052,2.13773 -11.17537,-1.29389 -19.53761,1.33472 -26.72905,4.44342 -5.56196,2.40431 -15.76777,7.42501 -8.66173,0.4373 z"
         style="fill:#000000;fill-opacity:1;stroke:none;display:inline" />
      <path
         sodipodi:nodetypes="cccccc"
         inkscape:connector-curvature="0"
         id="path3805"
         d="m 535.70328,295.86524 c 0,0 0.27139,-25.94254 -23.66053,-45.4988 l 10.10985,-8.70927 c 0,0 -3.16921,6.04701 -0.72072,10.48082 0.3045,-0.26517 10.64304,3.46807 19.42001,40.46838 z"
         style="fill:#000000;fill-opacity:1;stroke:none;display:inline" />
      <path
         inkscape:connector-curvature="0"
         id="path3807"
         d="m 355.10308,500.16398 c 0,0 -19.27191,7.91751 -32.06719,9.10514 0,0 6.31866,18.05193 6.63459,22.24822 0,0 25.35361,-7.52164 29.38176,-6.49236 l -0.4739,-5.14639 c 0,0 -24.72175,6.49237 -26.22243,7.83834 0,0 -4.42306,-11.08452 -3.55424,-15.5975 0,0 24.4848,-8.70927 26.38039,-8.15504 l 1.50069,-0.47505 z"
         style="fill:#000000;fill-opacity:1;stroke:none;display:inline" />
      <path
         inkscape:connector-curvature="0"
         id="path3811"
         d="m 265.07401,340.32234 c 0,0 -3.46268,0.014 -3.47664,2.99521 -0.014,2.98121 3.53248,3.00921 3.53248,3.00921 0,0 3.42079,0.028 3.43476,-3.00921 0.014,-3.0372 -3.4906,-2.99521 -3.4906,-2.99521 z"
         style="fill:#000000;fill-opacity:1;stroke:none;display:inline" />
      <path
         inkscape:connector-curvature="0"
         id="path3813"
         d="m 269.20687,365.31976 c 0,0 -2.54526,0.14753 -2.565,2.58216 -0.0198,2.43464 2.52746,2.41485 2.52746,2.41485 0,0 2.44848,0 2.44848,-2.47423 0,-2.47422 -2.41094,-2.52278 -2.41094,-2.52278 z"
         style="fill:#000000;fill-opacity:1;stroke:none;display:inline" />
      <path
         inkscape:connector-curvature="0"
         id="path3827"
         d="m 273.09874,394.32662 c 0,0 -2.50771,0.0792 -2.52746,2.53361 -0.0198,2.45443 2.42873,2.51381 2.42873,2.51381 0,0 2.54721,-0.0396 2.5867,-2.5336 0.0395,-2.49403 -2.48797,-2.51382 -2.48797,-2.51382 z"
         style="fill:#000000;fill-opacity:1;stroke:none;display:inline" />
      <path
         inkscape:connector-curvature="0"
         id="path3837"
         d="m 648.06246,226.28034 c 0,0 0.6702,-6.18637 -11.28161,-5.85046 -11.95181,0.33591 -34.3023,13.78484 -41.01588,24.55265 0,0 2.3695,2.05855 3.08035,3.80041 0.71085,1.74185 19.42987,-23.19831 38.14889,-23.43584 0,0 5.76578,0 7.66138,2.45442 1.8956,2.45444 3.40687,-1.52118 3.40687,-1.52118 z"
         style="fill:#000000;fill-opacity:1;stroke:none;display:inline" />
      <path
         sodipodi:nodetypes="cscccssc"
         inkscape:connector-curvature="0"
         id="path3839"
         d="m 646.83377,223.34111 c 0,0 3.57437,-2.91123 3.12758,-9.51749 -0.44679,-6.60627 -14.41645,-13.18933 -31.39472,-2.55213 0,0 -25.90695,4.79153 -40.42783,25.39412 0,0 -0.83774,2.6313 2.40153,2.57532 0,0 36.91657,-29.2803 53.83899,-29.00037 16.92242,0.27992 16.279,7.18903 6.32711,10.43521 -9.95189,3.24618 6.12734,2.66534 6.12734,2.66534 z"
         style="fill:#000000;fill-opacity:1;stroke:none;display:inline" />
      <path
         inkscape:connector-curvature="0"
         id="path3841"
         d="m 609.19116,214.83135 c 0,0 1.17284,-4.03094 9.15933,-2.40736"
         style="fill:none;stroke:none;display:inline" />
      <path
         inkscape:connector-curvature="0"
         id="path3843"
         d="m 618.82807,211.3331 c 0,0 7.10849,-4.90885 -6.63459,-4.51298 -13.74308,0.39587 -39.72856,16.46842 -53.62961,27.86965 0,0 -6.39764,0.47504 -3.08034,-4.03794 3.3173,-4.51298 30.80345,-22.01069 43.36179,-24.22758 12.55833,-2.21691 17.37631,-3.24619 26.53836,1.82102 z"
         style="fill:#000000;fill-opacity:1;stroke:none;display:inline" />
      <path
         sodipodi:nodetypes="cscscssc"
         inkscape:connector-curvature="0"
         id="path3845"
         d="m 576.80899,216.32114 c 0,0 5.92374,-9.42184 -5.52882,-9.10515 -11.45257,0.31671 -39.74353,13.60859 -49.90816,36.33861 0,0 -7.96287,-1.03853 -3.83,-7.36487 4.13286,-6.32633 15.32873,-19.399 34.13087,-28.41369 0,0 3.55537,-1.2558 9.3201,-3.35795 8.17971,-2.98278 21.14421,0.0359 22.17228,4.81474 0.9901,4.60228 -6.35627,7.08831 -6.35627,7.08831 z"
         style="fill:#000000;fill-opacity:1;stroke:none;display:inline" />
      <path
         sodipodi:nodetypes="ccccc"
         inkscape:connector-curvature="0"
         id="path3849"
         d="m 516.38214,239.16515 c 0,0 2.16516,8.58555 -11.90893,10.20911 l 7.58537,1.05751 8.89025,-7.5518 z"
         style="fill:#000000;fill-opacity:1;stroke:none;display:inline" />
      <path
         sodipodi:nodetypes="ccccc"
         inkscape:connector-curvature="0"
         id="path3851"
         d="M 313.01814,263.71761 C 469.00038,296.49092 504.5079,249.37625 504.5079,249.37625 l 7.48363,0.99993 c 0,0 -53.12151,54.75282 -200.61832,15.66251 z"
         style="fill:#000000;fill-opacity:1;stroke:none;display:inline" />
      <path
         sodipodi:nodetypes="cccccccccsc"
         inkscape:connector-curvature="0"
         id="path3853"
         d="m 319.00602,267.9637 c 0,0 9.85808,22.95383 17.03326,32.83586 0,0 -14.59994,8.00569 -31.82038,8.69368 0,0 -1.15025,6.95605 20.33543,20.13528 0,0 -44.79344,72.30548 -44.66866,102.82719 0,0 40.4306,-90.18916 53.15875,-101.94752 0,0 -14.59994,-10.75765 -16.47172,-17.0121 0,0 17.03326,-2.43924 25.58109,-7.69298 0,0 -0.31197,-12.57144 -11.66748,-32.02278 0,0 -2.13635,-2.04445 7.08295,-1.55667 7.48944,0.39625 -18.56324,-4.25996 -18.56324,-4.25996 z"
         style="fill:#000000;fill-opacity:1;stroke:none;display:inline" />
      <path
         inkscape:connector-curvature="0"
         id="path3855"
         d="m 288.37721,339.31394 c 0,0 -7.32366,48.82511 -12.00022,80.66756 -4.67656,31.84246 17.02971,-63.68491 17.20619,-76.7757 z"
         style="fill:#000000;fill-opacity:1;stroke:none;display:inline" />
      <path
         sodipodi:nodetypes="cccccc"
         inkscape:connector-curvature="0"
         id="path3857"
         d="m 239.31749,339.22549 c 0,0 26.38283,38.65321 32.55942,77.39486 0,0 4.04681,5.82825 5.60664,-1.77091 0.279,4.13943 -4.30333,6.30326 -6.75372,9.33349 0.26189,-0.26253 -29.21472,-74.24746 -36.35075,-80.47861 0,0 3.65898,-2.17909 4.93841,-4.47883 z"
         style="fill:#000000;fill-opacity:1;stroke:none;display:inline" />
      <path
         sodipodi:nodetypes="ccccccccccc"
         inkscape:connector-curvature="0"
         id="path3863"
         d="m 237.641,519.13538 -4.67655,19.37083 c 0,0 -53.28177,-14.73553 -55.90227,-16.11151 l 5.61536,-19.01353 -1.49743,-7.00498 -9.10937,28.3952 64.01512,19.88915 7.73672,-29.77118 c 0,0 -41.42889,-6.21782 -62.64247,-18.47654 l 1.49743,7.09344 z"
         style="fill:#000000;fill-opacity:1;stroke:none;display:inline" />
      <path
         sodipodi:nodetypes="cccccccccc"
         inkscape:connector-curvature="0"
         id="path3865"
         d="M 181.87528,273.5062 C 173.88582,279.73533 94.32007,291.64849 -2.884253e-7,448.19546 c 0,0 19.8320742884253,58.43802 68.7481062884253,111.97611 l 0.374357,-7.25516 c 0,0 -36.515854,-39.5263 -63.3679922,-101.44626 -0.9493305,16.1377 36.1412242,-97.54636 147.8479792,-160.43458 0,0 7.98629,-6.30995 30.94687,-13.31493 l 0.41426,-9.87533 -3.26476,-1.68057 z"
         style="fill:#000000;fill-opacity:1;stroke:none;display:inline" />
      <path
         sodipodi:nodetypes="csccc"
         inkscape:connector-curvature="0"
         id="path3869"
         d="m 152.79134,201.41635 c 0.49914,4.87848 3.55649,6.42893 4.11793,-0.25017 0.49935,-5.94048 3.92786,-5.9904 3.89956,-6.16064 -5e-5,-8.7e-4 3.12929,-1.19226 -0.0935,-2.78323 -3.40452,-1.44623 -8.04131,6.85391 -7.9239,9.19404 z"
         style="fill:#000000;fill-opacity:1;stroke:none;display:inline" />
      <path
         sodipodi:nodetypes="csccc"
         inkscape:connector-curvature="0"
         id="path3871"
         d="m 144.55108,196.88593 c 0,0 0.95423,1.94712 2.91183,0.37527 2.42348,-1.94593 -2.99296,-7.169 9.75147,-15.21807 4.24614,-3.62018 0.8708,-4.88916 -1.02415,-4.26267 -8.69427,5.09045 -11.17878,12.45448 -11.63915,19.10547 z"
         style="fill:#000000;fill-opacity:1;stroke:none;display:inline" />
      <path
         inkscape:connector-curvature="0"
         id="path3873"
         d="m 185.79718,136.74535 c 0,0 9.48372,-12.38381 19.59137,-15.13577 0,0 -2.37093,-6.37954 -7.11279,-8.00569 -4.74186,-1.62616 -12.22901,18.63825 -12.47858,23.14146 z"
         style="fill:#000000;fill-opacity:1;stroke:none;display:inline" />
      <path
         sodipodi:nodetypes="csssc"
         inkscape:connector-curvature="0"
         id="path3877"
         d="m 210.00563,144.62595 c 0,0 -4.36751,0 -4.24272,10.88275 0.12479,10.88274 4.30511,13.6347 7.79911,13.50961 3.494,-0.12509 5.61256,0.49001 6.05211,-8.13079 0.44611,-8.74924 -6.24236,-17.40012 -9.6085,-16.26157 z"
         style="fill:#000000;fill-opacity:1;stroke:none;display:inline" />
      <path
         sodipodi:nodetypes="cssscc"
         inkscape:connector-curvature="0"
         id="path3879"
         d="m 270.65152,191.90959 c 0,0 -3.86836,1.00071 -3.99314,-4.25302 -0.12479,-5.25374 5.61536,-5.37883 5.36579,-12.75908 -0.24957,-7.38025 -21.3787,-23.22937 -25.33152,-35.15001 -2.8006,-8.44585 22.11066,19.33326 35.56395,30.57353 0,0 -1.62481,20.77106 -11.60508,21.58858 z"
         style="fill:#000000;fill-opacity:1;stroke:none;display:inline" />
      <path
         sodipodi:nodetypes="cscsc"
         inkscape:connector-curvature="0"
         id="path3881"
         d="m 287.87196,127.1135 c 0,0 -5.65728,0.63318 -5.241,11.88345 0.48531,13.11549 8.6392,13.42874 8.6392,13.42874 0,0 5.92337,0.58421 5.96074,-9.67607 0.0593,-16.27199 -9.35894,-15.63612 -9.35894,-15.63612 z"
         style="fill:#000000;fill-opacity:1;stroke:none;display:inline" />
      <path
         sodipodi:nodetypes="csssc"
         inkscape:connector-curvature="0"
         id="path3885"
         d="m 268.43567,104.38737 c -0.39184,0 0.98676,5.74933 4.85303,5.66088 2.29526,-0.0525 16.24323,-1.85709 16.32383,-3.53805 0.0808,-1.68433 -16.12724,-5.69503 -16.85325,-6.19159 -1.11258,-0.760963 -4.41185,0.88451 -4.32361,4.06876 z"
         style="fill:#000000;fill-opacity:1;stroke:none;display:inline" />
      <path
         inkscape:connector-curvature="0"
         id="path3887"
         d="m 153.78963,290.16699 c 0,0 28.52685,36.85223 28.61508,38.79815 l 22.98384,-0.58346 c 0,0 12.10422,-2.00143 1.87179,7.50534 -10.23244,9.50676 -13.60165,12.25872 -4.24272,19.63897 9.35894,7.38025 63.91802,63.7479 66.38865,83.73789 l 10.72897,-7.18343 -3.33912,-14.33235 -6.0822,6.07647 -4.92536,-1.54333 c 0,0 -32.3232,-46.74101 -62.14701,-75.01113 0,0 3.46949,-8.22152 10.61668,-14.32466 7.14718,-6.10314 -3.70595,-11.49867 -29.47112,-10.08344 l -27.44168,-35.11516 z"
         style="fill:#000000;fill-opacity:1;stroke:none;display:inline" />
      <path
         inkscape:connector-curvature="0"
         id="path3889"
         d="m 253.43108,406.81247 c 0,0 23.33495,31.02207 10.04526,-3.75267 -13.28969,-34.77474 11.29312,23.39164 11.29312,23.39164 0,0 -10.35723,4.12794 -21.33838,-19.63897 z"
         style="fill:#000000;fill-opacity:1;stroke:none;display:inline" />
      <path
         inkscape:connector-curvature="0"
         id="path3891"
         d="m 280.63439,399.55731 c 0,0 -7.23758,44.03132 8.11107,2.62687 15.34866,-41.40446 -6.61364,23.39164 -6.61364,23.39164 l -2.093,5.50632 -6.39717,0.0442 4.10301,-15.12517 z"
         style="fill:#000000;fill-opacity:1;stroke:none;display:inline" />
      <path
         sodipodi:nodetypes="csssccscccscccsccc"
         inkscape:connector-curvature="0"
         id="path3893"
         d="m 290.95241,407.98136 c 0,0 -11.15289,22.41886 -8.15284,48.60044 3.00005,26.18157 -3.5361,42.62074 12.08845,83.05573 15.62456,40.43501 14.82146,72.57106 41.52562,65.81625 26.70416,-6.7548 35.31438,-12.88416 35.31438,-12.88416 l 2.6205,6.00427 c -2.82148,-1.25703 -43.96276,20.77443 -57.4665,10.12262 -8.78846,-6.93237 -12.66442,-21.14235 -24.64255,-50.52636 0,0 1.87313,-5.86555 -7.83293,-39.47703 l -0.99567,-3.4285 c 0,0 -8.35743,31.556 -7.29859,44.6468 1.05884,13.09078 -14.64733,59.96996 -29.82406,62.9773 0,0 -21.70628,9.90653 -97.94295,-24.76636 l 1.5136,-7.42908 c 0,0 67.43872,28.28193 87.90359,26.53069 20.46487,-1.75125 39.93146,-96.81888 39.93146,-96.81888 0,0 -2.04827,-64.38418 -8.28756,-81.14611 z"
         style="fill:#000000;fill-opacity:1;stroke:none;display:inline" />
      <path
         inkscape:connector-curvature="0"
         id="path3895"
         d="m 275.75934,553.98518 c 0,0 8.73544,5.21862 16.85324,-1.14987 l 1.9412,2.65354 c 0,0 -10.50018,6.98765 -20.29448,0.3538 -9.79429,-6.63384 1.50004,-1.85747 1.50004,-1.85747 z"
         style="fill:#000000;fill-opacity:1;stroke:none;display:inline" />
      <path
         inkscape:connector-curvature="0"
         id="path3899"
         d="m 177.99807,414.63053 3.11965,16.82447 c 0,0 39.68188,-7.25516 51.28696,-6.7548 l -2.80768,-2.37669 c 0,0 -36.74942,5.12865 -45.85878,4.00284 l -1.18547,-8.63114 46.91946,-3.69012 3.05725,-2.56433 z"
         style="fill:#000000;fill-opacity:1;stroke:none;display:inline" />
      <path
         sodipodi:nodetypes="ccccc"
         inkscape:connector-curvature="0"
         id="path3901"
         d="m 229.34743,413.97382 0.24957,8.38877 2.80968,2.34409 0.11883,-13.26201 z"
         style="fill:#000000;fill-opacity:1;stroke:none;display:inline" />
      <path
         inkscape:connector-curvature="0"
         id="path3903"
         d="m 183.99297,414.36484 c 0,0 -1.89709,-3.27269 -0.39706,-5.97045 1.50003,-2.69777 22.721,-13.17925 23.82396,-13.22347 1.10295,-0.0442 19.27975,7.56258 19.72094,9.86232 0.44119,2.29973 -0.35295,6.63385 -0.35295,6.63385 l -2.60298,-1.10565 c 0,0 1.4559,-2.96312 0.48529,-4.24566 -0.9706,-1.28254 -15.79439,-6.8992 -17.33854,-6.98765 -1.54414,-0.0885 -18.57387,8.93357 -18.83858,12.16205 z"
         style="fill:#000000;fill-opacity:1;stroke:none;display:inline" />
      <path
         sodipodi:nodetypes="cccccc"
         inkscape:connector-curvature="0"
         id="path3905"
         d="m 183.68496,414.44133 c -0.12479,-0.12509 43.10436,-2.59403 43.10436,-2.59403 l -0.14039,-1.06325 -2.45672,-0.22672 -35.74327,0.94391 z"
         style="fill:#000000;fill-opacity:1;stroke:none;display:inline" />
      <path
         sodipodi:nodetypes="ccccc"
         inkscape:connector-curvature="0"
         id="path3909"
         d="m 69.110764,552.92423 c 0,0 36.704336,5.04125 47.116276,-41.30721 l 9.35311,7.34146 c 0,0 -17.47089,46.96761 -56.912782,41.21828 z"
         style="fill:#000000;fill-opacity:1;stroke:none;display:inline" />
      <path
         sodipodi:nodetypes="cscccssccccscsccc"
         inkscape:connector-curvature="0"
         id="path3923"
         d="m 87.638299,558.23084 c 0,0 -1.058842,4.51101 2.117685,4.77637 3.176527,0.26535 11.823746,5.57242 2.029446,6.8992 0,0 -2.69724,3.21187 -10.683531,-1.16624 l -0.124785,4.00284 c 0,0 7.11279,-1.43852 7.424755,2.68942 0.311964,4.12793 3.369216,5.69155 3.556395,8.88132 0.187178,3.18976 0.561536,10.06966 -0.124786,10.94528 0,0 2.994859,-0.25018 3.930753,-2.37669 5.548789,-2.75086 -0.667864,-12.50599 -2.058966,-12.82162 -1.684608,-0.18763 -0.935894,-5.87918 -0.935894,-5.87918 0,0 1.93418,-3.25232 4.367503,-3.37741 2.433323,-0.12508 8.922186,-0.18763 8.922186,-0.18763 0,0 -7.487149,-8.81877 -11.355509,-8.94386 -3.868359,-0.12509 -2.994859,-4.25303 -2.994859,-4.25303 l 0,-3.18977 z"
         style="fill:#000000;fill-opacity:1;stroke:none;display:inline" />
      <path
         sodipodi:nodetypes="ccsscscccccccsscc"
         inkscape:connector-curvature="0"
         id="path3925"
         d="m 81.13083,568.75654 c 0,0 -11.669329,-1.23831 -12.198751,18.84011 0,0 -0.617658,12.47164 0.970606,14.32911 1.588262,1.85749 7.941317,15.21363 15.441452,15.12517 7.500136,-0.0885 15.794413,-4.86482 15.794413,-4.86482 0,0 24.69906,1.02319 26.0717,-0.41533 1.37264,-1.43853 19.72323,-65.48086 19.72323,-65.48086 0,0 -18.88269,-22.82043 -24.70632,-22.46663 l -2.31688,4.01278 20.83923,22.70365 c 0,0 -13.97601,45.4073 -16.6589,48.09671 0,0 4.80425,7.75552 -4.74186,9.81949 l -19.528981,0.37527 c 0,0 -10.419614,5.56646 -13.851223,5.69155 -3.43161,0.12508 -14.475153,-11.946 -14.662332,-19.51389 -0.187178,-7.56788 -0.664262,-22.71438 9.692962,-22.27656 z"
         style="fill:#000000;fill-opacity:1;stroke:none;display:inline" />
      <path
         sodipodi:nodetypes="ccccccc"
         inkscape:connector-curvature="0"
         id="path3927"
         d="m 116.23808,511.65018 c 0,0 -19.787528,-40.29179 -35.635324,-49.04802 0,0 63.330664,-32.89102 76.742674,-44.56658 0,0 4.14714,0.61916 3.26477,4.1572 0,0 -67.58945,39.09547 -72.266002,40.33379 0,0 38.188512,44.21781 37.217912,56.42409 z"
         style="fill:#000000;fill-opacity:1;stroke:none;display:inline" />
      <path
         inkscape:connector-curvature="0"
         id="path3929"
         d="m 132.76322,437.83454 c 0,0 29.69996,50.60824 27.58227,93.59556 -2.11768,42.98733 -34.59212,84.91307 -45.00081,153.0207 -10.40869,68.10763 -9.41041,103.88308 -5.9164,109.63718 3.494,5.75409 9.73329,0.50035 32.4443,19.01352 0,0 32.44431,-10.50747 37.93488,-9.0064 l 3.24444,-7.50534 c 0,0 -36.18789,10.75765 -36.9366,10.50747 -0.74872,-0.25018 -27.2033,-16.51174 -30.94688,-16.26157 -3.74357,0.25018 10.20705,-156.2047 33.69217,-193.38757 0,0 19.07327,-52.57339 15.72027,-76.63214 -3.353,-24.05874 -4.44753,-44.44876 -28.67699,-85.35548 z"
         style="fill:#000000;fill-opacity:1;stroke:none;display:inline" />
      <path
         sodipodi:nodetypes="cssscc"
         inkscape:connector-curvature="0"
         id="path3931"
         d="m 117.78892,797.71556 c 0,0 -9.35893,14.00996 -8.61022,23.26655 0.74872,9.25658 15.22387,24.14217 28.70074,24.01709 13.47686,-0.12509 47.29381,-7.88061 48.66646,-32.52314 1.37264,-24.64253 -7.23758,-13.25943 -7.23758,-13.25943 l 0.46795,4.84719 c 0,0 3.4628,0.78181 3.5252,7.16135 0.0624,6.37954 -24.70759,28.52029 -43.61264,27.89484 -18.90505,-0.62544 -26.01784,-14.7605 -25.89305,-20.13932 0.12478,-5.37883 8.23586,-19.63898 8.23586,-19.63898 z"
         style="fill:#000000;fill-opacity:1;stroke:none;display:inline" />
      <path
         inkscape:connector-curvature="0"
         id="path3933"
         d="m 190.2578,614.48585 c 0,0 -48.57276,154.39054 -50.00743,189.48416 l 4.56543,2.67622 c 0,0 36.3536,-164.65204 50.64797,-190.65671 z"
         style="fill:#000000;fill-opacity:1;stroke:none;display:inline" />
      <path
         inkscape:connector-curvature="0"
         id="path3937"
         d="m 185.75771,807.22117 c 0,0 5.47069,-9.72964 14.47085,-12.38318 0,0 49.41265,-148.59814 66.88356,-166.46529 0,0 10.67666,-27.86215 11.91197,-32.72697 1.23532,-4.86482 -18.88268,33.87684 -18.88268,33.87684 0,0 -44.10785,63.3599 -71.59894,165.8163 l -7.79911,1.87633 z"
         style="fill:#000000;fill-opacity:1;stroke:none;display:inline" />
      <path
         inkscape:connector-curvature="0"
         id="path3939"
         d="m 269.93569,617.75855 c 0,0 34.15843,49.23902 52.8763,159.5675 0,0 -9.19903,17.77729 -13.87559,-0.44367 -4.67656,-18.22096 1.67689,-33.7178 -40.76544,-153.10915 z"
         style="fill:#000000;fill-opacity:1;stroke:none;display:inline" />
      <path
         inkscape:connector-curvature="0"
         id="path3941"
         d="m 401.23218,766.00288 c -31.41234,24.41254 -79.58967,10.61415 -79.58967,10.61415 l -8.02955,6.72229 c 0,0 8.29426,17.77871 15.17674,18.84012 6.88247,1.06142 20.73566,3.00734 25.41222,-3.6265 4.67656,-6.63385 26.88503,9.79518 62.44899,5.54216 35.56395,-4.25303 40.52345,-9.78782 40.52345,-9.78782 l -9.61782,-5.79356 c 0,0 2.91182,6.10314 -2.3824,7.16456 -5.29421,1.06141 -36.35359,5.26284 -50.11854,4.11297 -13.76496,-1.14985 -42.88313,-8.84512 -42.88313,-8.84512 0,0 -4.58832,2.38819 -5.0295,6.81075 0,0 -12.52964,2.03437 -18.00032,-1.41522 -5.47069,-3.4496 -6.88249,-8.84513 -6.44129,-11.76402 0.44118,-2.91889 5.64715,-2.56508 9.52958,0.44226 3.88242,3.00734 54.44215,2.29973 69.79537,-9.64119 z"
         style="fill:#000000;fill-opacity:1;stroke:#000000;stroke-width:0.99949843px;stroke-linecap:butt;stroke-linejoin:miter;stroke-opacity:1;display:inline" />
      <path
         sodipodi:nodetypes="csscccsscscccccssscssc"
         inkscape:connector-curvature="0"
         id="path3943"
         d="m 307.87755,191.95412 c 0,0 3.61772,6.45695 0.88238,7.42991 -2.73535,0.97296 -27.17696,12.64854 -45.61847,12.38318 -18.44151,-0.26535 -31.05939,-1.76903 -33.17707,-3.9803 0,0 -0.61766,-7.16456 0.17647,-9.28739 0.003,5.7e-4 -0.1374,-1.96889 -18.70622,20.07843 0.53653,0.13446 6.46316,19.30953 9.67692,19.61457 4.51522,0.42856 -1.62221,-7.50534 -1.747,-8.75623 -0.12478,-1.25089 -2.37093,-9.88203 28.45116,5.12865 0,0 24.95716,7.75551 41.05453,-2.37669 16.09737,-10.13221 22.58623,-18.76335 22.58623,-18.76335 0,0 2.87007,-1.50107 1.37264,6.00427 0,0 5.74015,1.1258 8.29826,-17.63755 0,0 -8.42304,-10.50747 -10.85637,-10.44493 l 3.05726,9.81949 c 0,0 3.55639,6.56717 -0.12479,9.44422 -3.68118,2.87704 -28.62264,19.97083 -48.91603,20.51459 -20.2934,0.54376 -42.55196,-6.81735 -41.67846,-13.19689 0.8735,-6.37954 18.21873,-4.5032 18.21873,-4.5032 0,0 13.85122,3.00213 23.95887,2.75196 10.10765,-0.25018 39.18274,-9.38168 45.54682,-14.13506 6.36407,-4.75338 -2.45586,-10.08768 -2.45586,-10.08768 z"
         style="fill:#000000;fill-opacity:1;stroke:#000000;stroke-width:0.99949843px;stroke-linecap:butt;stroke-linejoin:miter;stroke-opacity:1;display:inline" />
      <path
         sodipodi:nodetypes="ccccc"
         inkscape:connector-curvature="0"
         id="path3945"
         d="m 306.5154,190.50021 3.08829,0.33722 1.48899,2.88019 -1.89157,-0.32616 z"
         style="fill:#000000;fill-opacity:1;stroke:none;display:inline" />
      <path
         sodipodi:nodetypes="ccssc"
         inkscape:connector-curvature="0"
         id="path3947"
         d="m 183.8165,278.28257 c 0,0 23.49425,29.26848 30.02378,32.09891 0,0 0.41719,-7.36291 1.38779,-8.51277 0.97061,-1.14987 -26.91149,-25.97433 -30.17626,-26.06279 -3.26475,-0.0885 -1.23531,2.47665 -1.23531,2.47665 z"
         style="fill:#000000;fill-opacity:1;stroke:none;display:inline" />
      <path
         sodipodi:nodetypes="cssccccscc"
         inkscape:connector-curvature="0"
         id="path3949"
         d="m 185.61,275.95376 c 0,0 -0.74871,-3.48686 0.12479,-4.76902 0.8735,-1.28216 41.31778,12.58181 52.78857,20.18861 11.4708,7.60681 4.91986,9.97982 4.91986,9.97982 0,0 3.87336,3.88704 6.93061,3.76196 -0.10787,0.0217 2.67754,-2.73691 -0.43675,-5.81664 0,0 -2.18375,-1.71998 -4.55468,-9.56931 0,0 -54.21943,-22.51602 -59.21086,-26.64395 -4.99143,-4.12794 -4.34037,3.25641 -4.34037,3.25641 z"
         style="fill:#000000;fill-opacity:1;stroke:none;display:inline" />
      <path
         inkscape:connector-curvature="0"
         id="path3951"
         d="m 185.6061,275.94985 -0.55373,0.41826 -1.02169,-1.06325 0.58883,-2.14606 z"
         style="fill:#000000;fill-opacity:1;stroke:none;display:inline" />
      <path
         sodipodi:nodetypes="csccscscc"
         inkscape:connector-curvature="0"
         id="path3953"
         d="m 261.26139,305.17767 c 0,0 -1.59102,-16.94956 4.77306,-19.8266 6.36408,-2.87705 18.4683,-4.37812 31.69559,-13.6347 0,0 11.60508,-2.3767 2.24615,14.51032 0,0 0.0624,-5.44137 -0.8735,-7.19262 -0.9359,-1.75124 -5.80254,-0.87562 -5.80254,-0.87562 0,0 -9.04697,5.31628 -13.04012,6.31699 -3.99315,1.00071 -15.28626,5.06611 -16.03497,17.63755 z"
         style="fill:#000000;fill-opacity:1;stroke:none;display:inline" />
      <path
         inkscape:connector-curvature="0"
         id="path3955"
         d="m 218.9902,288.47829 c 0,0 -16.93496,35.37034 9.85808,60.79325 0,0 23.33495,-21.51531 25.20673,-26.1436 1.87179,-4.62829 -2.29612,-4.5116 0.351,-14.41814 0,0 -31.05938,-18.13251 -32.38294,-19.37083 -1.32355,-1.23832 -2.55887,4.77637 -2.55887,4.77637 0,0 -9.83064,18.65903 8.82368,50.41723 0,0 10.29369,-4.20489 23.52099,-22.53043 0,0 -3.36922,-7.69297 -2.6205,-12.07109 0,0 -24.5828,-16.07393 -27.01613,-16.19902 -2.43332,-0.12509 -3.18204,-5.25374 -3.18204,-5.25374 z"
         style="fill:none;stroke:none;display:inline" />
      <path
         sodipodi:nodetypes="ccccscccc"
         inkscape:connector-curvature="0"
         id="path3957"
         d="m 219.81714,289.07362 c 0,0 -19.4121,31.13484 9.0884,61.03138 l 26.56688,-26.61003 -2.91484,-2.24337 c 0,0 -20.71444,23.14147 -22.96058,23.892 -2.24615,0.75054 -20.83923,-24.51744 -9.48372,-51.53666 0,0 15.59822,5.25374 26.95373,14.51032 l 3.02605,-3.06468 c 0,0 -26.64129,-16.07161 -30.27592,-15.97896 z"
         style="fill:#000000;fill-opacity:1;stroke:none;display:inline" />
      <path
         sodipodi:nodetypes="csssccscscc"
         inkscape:connector-curvature="0"
         id="path3963"
         d="m 247.08234,308.04642 c 0,0 3.00006,1.01718 3.52948,3.31692 0.52942,2.29974 -0.35295,6.14736 1.85297,9.64119 2.20593,3.49382 11.38256,6.81074 14.55909,0.53071 3.17653,-6.28004 -4.23537,-16.40772 -4.23537,-16.40772 l -2.16181,3.75919 c 0,0 4.85303,4.06875 4.98539,8.66821 0.13236,4.59948 -5.64716,4.51102 -5.64716,4.51102 0,0 -7.28569,-1.07187 -6.39717,-8.13751 0.51966,-4.13242 -3.06624,-9.11049 -3.06624,-9.11049 -1.53143,0.53756 -2.5261,1.87651 -3.41918,3.22848 z"
         style="fill:#000000;fill-opacity:1;stroke:none;display:inline" />
      <path
         sodipodi:nodetypes="csssc"
         inkscape:connector-curvature="0"
         id="path3965"
         d="m 253.21794,310.60614 c 0,0 4.65137,-3.86438 7.73965,-1.52042 3.08829,2.34396 3.69951,-4.19015 1.07901,-4.2527 -2.6205,-0.0625 -0.8064,2.28353 -10.57089,1.31409 -9.76449,-0.96944 1.75223,4.45903 1.75223,4.45903 z"
         style="fill:#000000;fill-opacity:1;stroke:none;display:inline" />
      <path
         inkscape:connector-curvature="0"
         id="path3967"
         d="m 288.28897,339.49084 c 0,0 -17.02972,-15.12516 -24.26514,-15.83277 l 2.91181,-3.18425 c 0,0 23.11807,17.4249 28.50052,17.33645 5.38245,-0.0885 9.78103,-37.19835 -4.07019,-51.83376 0,0 -21.58795,15.13577 -25.70588,23.51673 l -3.13629,-1.22569 c 0,0 21.88274,-22.99733 27.00049,-24.23565 5.11773,-1.23832 24.52985,20.25534 8.3825,59.1739 0,0 -3.52947,1.76901 -9.61782,-3.71496 z"
         style="fill:#000000;fill-opacity:1;stroke:none;display:inline" />
      <path
         inkscape:connector-curvature="0"
         id="path3969"
         d="m 294.23604,286.41432 c 0,0 5.241,1.62616 5.80254,-2.62687 0.56154,-4.25302 6.45907,-25.41146 1.06068,13.50961 l -1.42773,0.53323 z"
         style="fill:#000000;fill-opacity:1;stroke:none;display:inline" />
      <path
         sodipodi:nodetypes="csssc"
         inkscape:connector-curvature="0"
         id="path3971"
         d="m 270.421,245.42292 c 0,0 -0.34943,-3.5742 4.58831,-3.31692 4.79566,0.24988 9.95643,0.63147 14.07379,-1.41523 3.9882,-1.98249 0.61543,8.1364 -9.08839,8.71245 -10.65836,0.63272 -9.57371,-3.9803 -9.57371,-3.9803 z"
         style="fill:#000000;fill-opacity:1;stroke:none;display:inline" />
      <path
         inkscape:connector-curvature="0"
         id="path3973"
         d="m 303.71976,275.34395 c 0,0 74.24755,-75.17849 8.85979,-160.98953 l -3.2902,3.30064 c 0,0 59.05379,79.19608 -9.88254,153.9052 z"
         style="fill:#000000;fill-opacity:1;stroke:none;display:inline" />
      <path
         sodipodi:nodetypes="csssssccccsssccssscssccsc"
         inkscape:connector-curvature="0"
         id="path3975"
         d="m 309.37758,117.69928 c 0,0 -14.91203,-21.803236 -19.50035,-21.803236 -4.58831,0 -11.82374,0.176903 -15.35321,-3.714954 -3.52948,-3.891855 -23.47101,-19.459279 -28.2358,-19.459279 -4.7648,0 -15.88265,11.852471 -18.52976,11.852471 -2.6471,0 -9.3531,0.530708 -11.82373,-0.176903 -2.47064,-0.70761 -20.8239,-13.090789 -41.47134,19.813081 0.38722,-0.72781 -2.15543,4.1397 -16.765,0.61916 0,0 -22.2357,-5.218623 -24.35339,15.39052 0,0 -3.44123,12.47163 17.02972,17.69026 0,0 2.3824,2.12283 0,4.86482 -2.38239,2.74199 -22.84165,12.40498 -23.47101,43.34112 -0.62935,30.93614 -4.99686,-4.46405 -3.37464,-10.21814 1.62222,-5.75409 5.61536,-21.76548 19.3418,-33.64894 0,0 5.27403,-2.71148 -6.73843,-4.81592 0,0 -13.72644,-5.81664 -13.85123,-18.20045 -0.12478,-12.38381 12.97773,-22.140749 23.21016,-21.390215 10.23244,0.750534 15.97258,3.377405 23.21016,3.377405 7.23757,0 9.23415,-30.646804 26.70416,-31.022071 0,0 20.96401,8.756229 28.70073,9.131496 7.73672,0.375267 11.85465,-11.633276 20.46487,-11.758365 8.61022,-0.125089 34.3161,21.765484 34.3161,21.765484 0,0 9.931,3.905881 16.37229,0.456282 0,0 0.7059,7.341456 4.94127,9.641189 4.23537,2.299735 12.2208,14.505995 9.17663,18.265185 z"
         style="fill:#000000;fill-opacity:1;stroke:none;display:inline" />
      <path
         inkscape:connector-curvature="0"
         id="path3977"
         d="m 307.34813,107.74851 5.27041,6.65282 -2.57918,3.34218 -0.83825,-0.72973 z"
         style="fill:#000000;fill-opacity:1;stroke:none;display:inline" />
      <path
         sodipodi:nodetypes="cccsscsscscsccscscscssscscc"
         inkscape:connector-curvature="0"
         id="path3979"
         d="m 295.03713,89.864225 c 0,0 13.28162,-5.02459 12.66396,-17.58467 0.35672,-11.638238 -9.54499,-33.203397 -19.26025,-34.794001 0,0 2.58343,20.111089 -11.97562,20.464895 -14.55908,0.353805 -28.9417,-20.255342 -40.76543,-20.609146 -11.82374,-0.353805 -19.58859,8.668224 -19.58859,8.668224 0,0 -4.94126,1.901702 -7.01483,0.132677 -2.07357,-1.769026 -19.72095,-20.653372 -24.66221,-20.8745 -4.94127,-0.221129 -11.38256,7.208779 -21.17686,18.088285 0,0 -14.39671,7.203049 -20.76079,9.829917 -6.36407,2.626869 -14.22558,17.012103 -16.22215,28.145023 0,0 -14.63563,2.712644 -22.31224,41.100501 -7.676604,38.38784 17.2218,62.45786 17.2218,62.45786 l -5.30982,5.64962 c 0,0 -20.920977,-31.40263 -18.924404,-62.92506 C 98.946268,96.091429 122.406,78.328793 122.406,78.328793 c 0,0 6.70363,-26.127677 12.17432,-28.958118 5.47069,-2.83044 16.76501,-7.960614 24.17691,-10.614151 0,0 15.35321,-19.105475 23.82395,-18.75167 8.47074,0.353804 6.35306,-1.415221 29.47112,17.690253 0,0 13.61394,-4.836161 22.28656,-4.773616 8.67261,0.06254 32.33126,18.878986 41.06752,18.748917 8.87821,-0.132182 14.98628,-5.044138 6.6927,-16.055207 -4.84979,-6.438896 2.13902,-9.587463 15.43702,1.915576 0,0 13.04688,10.276303 12.92209,30.665808 -0.12478,20.389505 -14.51235,25.444878 -14.51235,25.444878 z"
         style="fill:#000000;fill-opacity:1;stroke:none;display:inline" />
      <path
         sodipodi:nodetypes="csscscccccccscc"
         inkscape:connector-curvature="0"
         id="path3981"
         d="m 115.78586,190.53891 c 0,0 10.50019,18.13251 13.32377,19.63618 2.82358,1.50367 -5.18349,9.68672 4.69904,27.90768 9.88253,18.22096 29.88982,12.4261 29.88982,12.4261 0,0 15.17674,16.98264 19.23564,17.15955 4.0589,0.17689 1.05884,-5.83779 1.05884,-5.83779 0,0 -15.61792,-13.17924 -17.51501,-16.76152 0,0 -0.97061,-1.10564 -1.85297,-0.22114 -5.4733,-1.6045 -11.08178,1.14114 -16.4053,-0.89064 -0.74872,-0.37527 -12.85765,-5.8906 -14.78645,-18.92244 -2.0544,-12.80271 18.68925,-18.03874 2.82358,-20.6976 -5.38245,-0.61916 -0.30883,-4.46679 -0.30883,-4.46679 0,0 -1.19119,-2.43241 -4.80891,-0.84028 -3.61771,1.59212 -9.97077,-14.15221 -9.97077,-14.15221 z"
         style="fill:#000000;fill-opacity:1;stroke:none;display:inline" />
      <path
         sodipodi:nodetypes="csscccscscc"
         inkscape:connector-curvature="0"
         id="path3983"
         d="m 135.41492,199.57129 c 0,0 10.85203,-26.81542 17.78916,-32.49631 6.24985,-5.11806 2.01062,-8.69922 -3.46999,-2.68497 -5.4802,6.0138 -15.22387,23.64182 -16.7213,33.89912 -1.96855,-1.97512 0.94777,-16.57399 1.24786,-19.13862 1.38574,-12.0772 18.31323,-27.44002 18.31323,-27.44002 0,0 2.08925,-3.26932 0.46703,-4.27003 -1.62221,-1.00072 -17.78197,7.81806 -22.39905,38.77758 0,0 -3.86836,1.31344 -4.3675,-1.6887 -0.49915,-3.00213 -1.87179,15.63612 -1.87179,15.63612 z"
         style="fill:#000000;fill-opacity:1;stroke:#000000;stroke-width:0.99949843px;stroke-linecap:butt;stroke-linejoin:miter;stroke-opacity:1;display:inline" />
      <path
         inkscape:connector-curvature="0"
         id="path3985"
         d="m 116.88883,179.96898 c 0,0 6.08834,8.4471 6.35305,1.45945 0.26471,-6.98766 4.01478,9.46428 4.01478,9.46428 l -3.48536,6.10314 z"
         style="fill:#000000;fill-opacity:1;stroke:none;display:inline" />
      <path
         inkscape:connector-curvature="0"
         id="path3987"
         d="m 126.08718,180.65158 c 0,0 2.21495,10.57002 6.05211,0.43781 3.83716,-10.1322 -2.55811,15.13577 -2.55811,15.13577 0,0 -5.70895,-12.82162 -4.61707,-14.29142 1.09187,-1.46979 1.12307,-1.28216 1.12307,-1.28216 z"
         style="fill:#000000;fill-opacity:1;stroke:none;display:inline" />
      <path
         inkscape:connector-curvature="0"
         id="path3989"
         d="m 133.07518,187.96929 c 0,0 -0.8111,8.25587 2.62051,0.81308 3.4316,-7.4428 -3.05726,11.57073 -3.05726,11.57073 L 129.394,190.0958 z"
         style="fill:#000000;fill-opacity:1;stroke:none;display:inline" />
      <path
         inkscape:connector-curvature="0"
         id="path3991"
         d="m 264.22506,302.11299 -0.34317,4.87847 -2.49571,-2.22033 z"
         style="fill:#000000;fill-opacity:1;stroke:none;display:inline" />
      <path
         inkscape:connector-curvature="0"
         id="path3996"
         d="m 307.99367,79.266959 c 0,0 25.47258,19.282623 4.38397,35.026951 l -4.58832,-2.83045 c 0,0 21.79451,-7.96061 -0.79413,-28.569753 z"
         style="fill:#000000;fill-opacity:1;stroke:none;display:inline" />
      <path
         inkscape:connector-curvature="0"
         id="path4010"
         d="m 261.54216,322.62758 c 0,0 -7.48715,0.68799 -8.7974,-6.81735 -1.31025,-7.50534 4.92904,-7.8806 4.92904,-7.8806 0,0 5.61536,-0.93817 7.36236,5.75409 1.747,6.69226 0.24957,7.4428 -3.494,8.94386 z"
         style="fill:none;stroke:#000000;stroke-width:2.59869576;stroke-linecap:butt;stroke-linejoin:miter;stroke-miterlimit:4;stroke-opacity:1;stroke-dasharray:none" />
    </g>
  </g>
</svg>
